<svg width="100" height="101" viewBox="0 0 100 101" fill="none" xmlns="http://www.w3.org/2000/svg">
<mask id="mask0" mask-type="alpha" maskUnits="userSpaceOnUse" x="0" y="0" width="100" height="101">
<path d="M69.475 73.2536L55.4654 31.5913C49.3232 28.4144 44.4672 23.5923 43.7774 15.3143C43.2111 8.51763 39.659 10.066 34.6473 3.40123C38.0388 2.30814 41.5886 1.56747 45.2534 1.22236C48.8921 0.879711 49.6245 1.0057 50 0.999996C77.6142 0.999996 100 23.3858 100 51C100 78.6142 77.6142 101 50 101C22.3858 101 0 78.6142 0 51C0 42.431 2.15558 34.3655 5.95408 27.3161C6.04663 38.3653 17.6426 42.4553 7.59702 49.086C-2.48871 55.7433 11.6925 57.448 16.6575 63.9751C22.4958 71.6503 43.7774 121.956 36.7952 77.7317C35.7813 71.3103 48.1482 79.2568 53.7949 78.5219C59.5004 77.7794 64.6639 75.8871 69.475 73.2536V73.2536ZM69.475 73.2536L74.1228 87.0753L100 51L45.2534 1.22236L55.4654 31.5913C67.5885 37.8617 84.7221 37.7234 84.7221 45.0992C84.7221 60.0022 77.44 68.4529 71.9348 71.8264C71.1247 72.3228 70.3051 72.7992 69.475 73.2536V73.2536Z" fill="white"/>
</mask>
<g mask="url(#mask0)">
<path d="M69.475 73.2536L55.4654 31.5913C49.3232 28.4144 44.4672 23.5923 43.7774 15.3143C43.2111 8.51763 39.659 10.066 34.6473 3.40123C38.0388 2.30814 41.5886 1.56747 45.2534 1.22236C48.8921 0.879711 49.6245 1.0057 50 0.999996C77.6142 0.999996 100 23.3858 100 51C100 78.6142 77.6142 101 50 101C22.3858 101 0 78.6142 0 51C0 42.431 2.15558 34.3655 5.95408 27.3161C6.04663 38.3653 17.6426 42.4553 7.59702 49.086C-2.48871 55.7433 11.6925 57.448 16.6575 63.9751C22.4958 71.6503 43.7774 121.956 36.7952 77.7317C35.7813 71.3103 48.1482 79.2568 53.7949 78.5219C59.5004 77.7794 64.6639 75.8871 69.475 73.2536V73.2536ZM69.475 73.2536L74.1228 87.0753L100 51L45.2534 1.22236L55.4654 31.5913C67.5885 37.8617 84.7221 37.7234 84.7221 45.0992C84.7221 60.0022 77.44 68.4529 71.9348 71.8264C71.1247 72.3228 70.3051 72.7992 69.475 73.2536V73.2536Z" fill="#1E2337"/>
<path fill-rule="evenodd" clip-rule="evenodd" d="M16.5 20L42.6541 39.002L32.6641 69.748H0.335907L-9.65405 39.002L16.5 20Z" fill="#1E2337"/>
<path d="M81 54H70C65.5817 54 62 57.5817 62 62V84C62 88.4183 65.5817 92 70 92H81C85.4183 92 89 88.4183 89 84V62C89 57.5817 85.4183 54 81 54Z" fill="#1E2337"/>
<path d="M115 -24H44V31H115V-24Z" fill="#1E2337"/>
</g>
</svg>
