<svg width="416" height="243" viewBox="0 0 416 243" fill="none" xmlns="http://www.w3.org/2000/svg">
<rect width="416" height="243" rx="45" fill="#1E2337"/>
<path fill-rule="evenodd" clip-rule="evenodd" d="M340.611 79.9897L367.179 94.7155C369.723 96.1253 371.301 98.8044 371.301 101.713V140.287C371.301 143.196 369.723 145.875 367.179 147.285L340.611 162.01C337.733 164.022 334.632 165.739 331.354 167.116C331.151 167.21 330.946 167.295 330.738 167.371C324.951 169.711 318.626 171 312 171C284.386 171 262 148.614 262 121C262 93.3858 284.386 71 312 71C318.626 71 324.951 72.2888 330.738 74.6295C330.946 74.7053 331.151 74.79 331.354 74.8838C334.632 76.2611 337.733 77.9778 340.611 79.9897Z" fill="#79B791"/>
<path fill-rule="evenodd" clip-rule="evenodd" d="M95 71H145V121V171H95C67.3858 171 45 148.614 45 121C45 93.3858 67.3858 71 95 71Z" fill="#03B5AA"/>
<path d="M96.3 137.5C92.8667 137.5 89.8167 136.75 87.15 135.25C84.4833 133.717 82.4167 131.6 80.95 128.9C79.4833 126.167 78.75 123.067 78.75 119.6C78.75 116.067 79.5167 112.933 81.05 110.2C82.5833 107.467 84.6667 105.35 87.3 103.85C89.9667 102.35 92.9167 101.6 96.15 101.6C98.75 101.6 101.017 101.917 102.95 102.55C104.917 103.183 106.8 104.067 108.6 105.2C108.867 105.333 109.1 105.567 109.3 105.9C109.5 106.233 109.6 106.6 109.6 107C109.6 107.567 109.4 108.05 109 108.45C108.633 108.85 108.133 109.05 107.5 109.05C107.133 109.05 106.783 108.967 106.45 108.8C104.883 107.867 103.317 107.167 101.75 106.7C100.183 106.233 98.4833 106 96.65 106C94.1167 106 91.8333 106.533 89.8 107.6C87.7667 108.667 86.1667 110.233 85 112.3C83.8667 114.333 83.3 116.767 83.3 119.6C83.3 122.2 83.8333 124.533 84.9 126.6C86 128.633 87.5667 130.25 89.6 131.45C91.6667 132.617 94.1 133.2 96.9 133.2C100.033 133.2 102.95 132.467 105.65 131V121.95H97.4C96.8333 121.95 96.35 121.75 95.95 121.35C95.55 120.95 95.35 120.467 95.35 119.9C95.35 119.333 95.55 118.85 95.95 118.45C96.35 118.05 96.8333 117.85 97.4 117.85H107.25C107.917 117.85 108.483 118.083 108.95 118.55C109.417 119.017 109.65 119.583 109.65 120.25V131.6C109.65 132.3 109.467 132.933 109.1 133.5C108.767 134.033 108.317 134.433 107.75 134.7C104.017 136.567 100.2 137.5 96.3 137.5Z" fill="white"/>
<path d="M235.025 175.785C244.574 178.409 254 171.224 254 161.321V80.0977C254 70.3748 244.892 63.2212 235.446 65.5248L165.446 82.5957C158.728 84.2342 154 90.2533 154 97.1686V142.083C154 148.836 158.513 154.756 165.025 156.546L235.025 175.785Z" fill="#DE3C4B"/>
<path d="M203.85 137.5C199.617 137.5 195.65 136.7 191.95 135.1C191.55 134.933 191.217 134.667 190.95 134.3C190.683 133.9 190.55 133.483 190.55 133.05C190.55 132.483 190.733 132 191.1 131.6C191.5 131.167 192 130.95 192.6 130.95C192.933 130.95 193.25 131.017 193.55 131.15C196.617 132.517 199.9 133.2 203.4 133.2C209.233 133.2 212.15 131.283 212.15 127.45C212.15 126.45 211.767 125.617 211 124.95C210.267 124.283 209.35 123.767 208.25 123.4C207.15 123 205.583 122.533 203.55 122C200.85 121.3 198.667 120.633 197 120C195.333 119.333 193.9 118.35 192.7 117.05C191.5 115.75 190.9 114.017 190.9 111.85C190.9 109.95 191.4 108.233 192.4 106.7C193.4 105.133 194.867 103.9 196.8 103C198.767 102.067 201.117 101.6 203.85 101.6C207.517 101.6 210.833 102.15 213.8 103.25C214.733 103.583 215.2 104.25 215.2 105.25C215.2 105.783 215.017 106.267 214.65 106.7C214.283 107.133 213.8 107.35 213.2 107.35C213 107.35 212.733 107.283 212.4 107.15C209.8 106.25 207.117 105.8 204.35 105.8C201.717 105.8 199.567 106.3 197.9 107.3C196.267 108.3 195.45 109.7 195.45 111.5C195.45 112.7 195.833 113.683 196.6 114.45C197.4 115.183 198.383 115.767 199.55 116.2C200.75 116.6 202.367 117.033 204.4 117.5C207.033 118.133 209.15 118.767 210.75 119.4C212.383 120.033 213.767 121.017 214.9 122.35C216.067 123.683 216.65 125.483 216.65 127.75C216.65 129.617 216.117 131.3 215.05 132.8C213.983 134.267 212.483 135.417 210.55 136.25C208.617 137.083 206.383 137.5 203.85 137.5Z" fill="white"/>
<path d="M295.75 137.25C295.083 137.25 294.533 137.033 294.1 136.6C293.7 136.167 293.5 135.633 293.5 135C293.5 134.733 293.583 134.4 293.75 134L306.5 103.9C306.767 103.3 307.133 102.817 307.6 102.45C308.1 102.05 308.7 101.85 309.4 101.85H309.9C310.6 101.85 311.183 102.05 311.65 102.45C312.15 102.817 312.533 103.3 312.8 103.9L325.55 134C325.717 134.4 325.8 134.733 325.8 135C325.8 135.633 325.583 136.167 325.15 136.6C324.75 137.033 324.217 137.25 323.55 137.25C323.083 137.25 322.65 137.133 322.25 136.9C321.883 136.633 321.6 136.283 321.4 135.85L318.15 128.05H301.15L297.9 135.85C297.7 136.283 297.4 136.633 297 136.9C296.633 137.133 296.217 137.25 295.75 137.25ZM302.9 123.9H316.4L309.65 107.65L302.9 123.9Z" fill="white"/>
</svg>
