<svg width="367" height="128" viewBox="0 0 367 128" fill="none" xmlns="http://www.w3.org/2000/svg">
<rect width="367" height="128" rx="45" fill="#1E2337"/>
<path fill-rule="evenodd" clip-rule="evenodd" d="M317.611 22.9898L344.179 37.7155C346.723 39.1253 348.301 41.8044 348.301 44.7126V83.2874C348.301 86.1956 346.723 88.8747 344.179 90.2845L317.611 105.01C314.733 107.022 311.632 108.739 308.354 110.116C308.151 110.21 307.946 110.295 307.738 110.371C301.951 112.711 295.626 114 289 114C261.386 114 239 91.6142 239 64C239 36.3858 261.386 14 289 14C295.626 14 301.951 15.2888 307.738 17.6295C307.946 17.7053 308.151 17.79 308.354 17.8837C311.632 19.2611 314.733 20.9778 317.611 22.9898Z" fill="#79B791"/>
<path fill-rule="evenodd" clip-rule="evenodd" d="M72 14H122V64V114H72C44.3858 114 22 91.6142 22 64C22 36.3858 44.3858 14 72 14Z" fill="#03B5AA"/>
<path d="M73.3 80.5C69.8667 80.5 66.8167 79.75 64.15 78.25C61.4833 76.7167 59.4167 74.6 57.95 71.9C56.4833 69.1667 55.75 66.0667 55.75 62.6C55.75 59.0667 56.5167 55.9333 58.05 53.2C59.5833 50.4667 61.6667 48.35 64.3 46.85C66.9667 45.35 69.9167 44.6 73.15 44.6C75.75 44.6 78.0167 44.9167 79.95 45.55C81.9167 46.1833 83.8 47.0667 85.6 48.2C85.8667 48.3333 86.1 48.5667 86.3 48.9C86.5 49.2333 86.6 49.6 86.6 50C86.6 50.5667 86.4 51.05 86 51.45C85.6333 51.85 85.1333 52.05 84.5 52.05C84.1333 52.05 83.7833 51.9667 83.45 51.8C81.8833 50.8667 80.3167 50.1667 78.75 49.7C77.1833 49.2333 75.4833 49 73.65 49C71.1167 49 68.8333 49.5333 66.8 50.6C64.7667 51.6667 63.1667 53.2333 62 55.3C60.8667 57.3333 60.3 59.7667 60.3 62.6C60.3 65.2 60.8333 67.5333 61.9 69.6C63 71.6333 64.5667 73.25 66.6 74.45C68.6667 75.6167 71.1 76.2 73.9 76.2C77.0333 76.2 79.95 75.4667 82.65 74V64.95H74.4C73.8333 64.95 73.35 64.75 72.95 64.35C72.55 63.95 72.35 63.4667 72.35 62.9C72.35 62.3333 72.55 61.85 72.95 61.45C73.35 61.05 73.8333 60.85 74.4 60.85H84.25C84.9167 60.85 85.4833 61.0833 85.95 61.55C86.4167 62.0167 86.65 62.5833 86.65 63.25V74.6C86.65 75.3 86.4667 75.9333 86.1 76.5C85.7667 77.0333 85.3167 77.4333 84.75 77.7C81.0167 79.5667 77.2 80.5 73.3 80.5Z" fill="white"/>
<path d="M212.025 118.785C221.574 121.409 231 114.224 231 104.321V23.0977C231 13.3748 221.892 6.22116 212.446 8.52476L142.446 25.5957C135.728 27.2342 131 33.2533 131 40.1686V85.0825C131 91.8358 135.513 97.7565 142.025 99.5462L212.025 118.785Z" fill="#DE3C4B"/>
<path d="M180.85 80.5C176.617 80.5 172.65 79.7 168.95 78.1C168.55 77.9333 168.217 77.6667 167.95 77.3C167.683 76.9 167.55 76.4833 167.55 76.05C167.55 75.4833 167.733 75 168.1 74.6C168.5 74.1667 169 73.95 169.6 73.95C169.933 73.95 170.25 74.0167 170.55 74.15C173.617 75.5167 176.9 76.2 180.4 76.2C186.233 76.2 189.15 74.2833 189.15 70.45C189.15 69.45 188.767 68.6167 188 67.95C187.267 67.2833 186.35 66.7667 185.25 66.4C184.15 66 182.583 65.5333 180.55 65C177.85 64.3 175.667 63.6333 174 63C172.333 62.3333 170.9 61.35 169.7 60.05C168.5 58.75 167.9 57.0167 167.9 54.85C167.9 52.95 168.4 51.2333 169.4 49.7C170.4 48.1333 171.867 46.9 173.8 46C175.767 45.0667 178.117 44.6 180.85 44.6C184.517 44.6 187.833 45.15 190.8 46.25C191.733 46.5833 192.2 47.25 192.2 48.25C192.2 48.7833 192.017 49.2667 191.65 49.7C191.283 50.1333 190.8 50.35 190.2 50.35C190 50.35 189.733 50.2833 189.4 50.15C186.8 49.25 184.117 48.8 181.35 48.8C178.717 48.8 176.567 49.3 174.9 50.3C173.267 51.3 172.45 52.7 172.45 54.5C172.45 55.7 172.833 56.6833 173.6 57.45C174.4 58.1833 175.383 58.7667 176.55 59.2C177.75 59.6 179.367 60.0333 181.4 60.5C184.033 61.1333 186.15 61.7667 187.75 62.4C189.383 63.0333 190.767 64.0167 191.9 65.35C193.067 66.6833 193.65 68.4833 193.65 70.75C193.65 72.6167 193.117 74.3 192.05 75.8C190.983 77.2667 189.483 78.4167 187.55 79.25C185.617 80.0833 183.383 80.5 180.85 80.5Z" fill="white"/>
<path d="M272.75 80.25C272.083 80.25 271.533 80.0333 271.1 79.6C270.7 79.1667 270.5 78.6333 270.5 78C270.5 77.7333 270.583 77.4 270.75 77L283.5 46.9C283.767 46.3 284.133 45.8167 284.6 45.45C285.1 45.05 285.7 44.85 286.4 44.85H286.9C287.6 44.85 288.183 45.05 288.65 45.45C289.15 45.8167 289.533 46.3 289.8 46.9L302.55 77C302.717 77.4 302.8 77.7333 302.8 78C302.8 78.6333 302.583 79.1667 302.15 79.6C301.75 80.0333 301.217 80.25 300.55 80.25C300.083 80.25 299.65 80.1333 299.25 79.9C298.883 79.6333 298.6 79.2833 298.4 78.85L295.15 71.05H278.15L274.9 78.85C274.7 79.2833 274.4 79.6333 274 79.9C273.633 80.1333 273.217 80.25 272.75 80.25ZM279.9 66.9H293.4L286.65 50.65L279.9 66.9Z" fill="white"/>
</svg>
